<?xml version="1.0" encoding="utf-8"?>
<!-- Generator: Adobe Illustrator 23.0.4, SVG Export Plug-In . SVG Version: 6.00 Build 0)  -->
<svg version="1.1" id="Capa_1" xmlns="http://www.w3.org/2000/svg" xmlns:xlink="http://www.w3.org/1999/xlink" x="0px" y="0px"
	 viewBox="0 0 728 128.5" style="enable-background:new 0 0 728 128.5;" xml:space="preserve">
<style type="text/css">
	.st0{fill:#8E1218;}
</style>
<g>
	<path class="st0" d="M-722.2-849.6c1.3,2.8,2.7,5.5,4.3,8.1c40.2,102.5,130.1,184.7,236.3,214.4c47.9,13.4,98.4,16.6,145.6,32.5
		c79.1,26.6,145,89.8,175,167.6c44.8,116.4,12.6,258.7,83.8,361.2C-4.7,38.6,142.6,54.8,269.4,45.2c126.8-9.7,261.8-33.8,375.7,23
		c74.5,37.2,129.6,104.8,201.7,146.4C902,246.4,966.4,260.3,1030,257V-849.6H-722.2z"/>
</g>
</svg>
