<?xml version="1.0" encoding="utf-8"?>
<!-- Generator: Adobe Illustrator 23.0.4, SVG Export Plug-In . SVG Version: 6.00 Build 0)  -->
<svg version="1.1" id="Capa_1" xmlns="http://www.w3.org/2000/svg" xmlns:xlink="http://www.w3.org/1999/xlink" x="0px" y="0px"
	 viewBox="0 0 387.9 245.1" style="enable-background:new 0 0 387.9 245.1;" xml:space="preserve">
<style type="text/css">
	.st0{fill:#8E1218;}
</style>
<g>
	<path class="st0" d="M72.8-5.4c0.3,0.5,0.5,1,0.8,1.5C81.4,14.4,99,29,120,34.1c9.5,2.3,19.4,2.9,28.7,5.7
		c15.5,4.7,28.5,15.9,34.3,29.7c8.8,20.7,2.2,46.1,16.2,64.3c14.2,18.5,43.2,21.4,68.3,19.5c25-1.8,51.7-6.2,74.1,3.8
		c14.7,6.5,25.5,18.5,39.6,25.9c10.9,5.6,23.5,8.1,36.1,7.4l1.1-197.3L72.8-5.4z"/>
</g>
</svg>
